<svg width="400" height="428" viewBox="0 0 400 428" fill="none" xmlns="http://www.w3.org/2000/svg">
<circle cx="200" cy="214" r="200" fill="#F76943"/>
<path d="M292.235 205H107.624C69.6502 205 39.9935 172.123 44.2185 134.466C45.4146 123.805 46.4088 115.4 46.934 111.887C47.6646 107.002 50.304 92.8018 53.4254 76.4277C60.2368 40.6973 89.4125 13.5134 125.53 8.98025L125.951 8.95791C126.364 8.936 126.974 8.90385 127.757 8.8629C129.322 8.78102 131.581 8.664 134.351 8.52355C139.891 8.24264 147.475 7.86814 155.65 7.49372C172.062 6.74202 190.665 6 200 6C209.335 6 227.938 6.74202 244.35 7.49372C252.525 7.86814 260.109 8.24264 265.649 8.52355C268.419 8.664 270.678 8.78102 272.243 8.8629C273.026 8.90385 273.636 8.936 274.049 8.95791L274.47 8.98025C310.568 13.5111 339.703 40.7112 346.514 76.4343C349.777 93.5509 352.507 108.146 353.066 111.886C353.47 114.597 354.461 123.132 355.708 134.325C359.909 172.051 330.248 205 292.235 205Z" fill="white" stroke="#1F120C" stroke-width="12"/>
<path d="M100 112.5C100 89.0279 119.028 70 142.5 70H200H250H257.5C280.972 70 300 89.0279 300 112.5V112.5V112.5C300 127.688 287.688 140 272.5 140H200H127.5C112.312 140 100 127.688 100 112.5V112.5V112.5Z" fill="#1F120C"/>
<circle cx="160" cy="105" r="17.5" fill="#1F120C" stroke="#F76943" stroke-width="5"/>
<ellipse cx="165.5" cy="97.0002" rx="4.5" ry="2" transform="rotate(-142.409 165.5 97.0002)" fill="white"/>
<circle cx="240" cy="105" r="17.5" fill="#1F120C" stroke="#F76943" stroke-width="5"/>
<ellipse cx="245.5" cy="97.0002" rx="4.5" ry="2" transform="rotate(-142.409 245.5 97.0002)" fill="white"/>
<path d="M244 163C244 163 224.524 172 200.5 172C176.476 172 157 163 157 163" stroke="#1F120C" stroke-width="10" stroke-linecap="round"/>
<path d="M172.045 210H227.955C253.967 210 275.445 230.325 276.88 256.297L283.659 379H116.341L123.12 256.297C124.555 230.325 146.033 210 172.045 210Z" fill="white" stroke="#1F120C" stroke-width="12"/>
<path d="M69.7616 253H329.238C344.445 253 356.405 265.993 355.15 281.147L344.845 405.487C344.072 414.819 336.271 422 326.907 422H72.0933C62.7286 422 54.9283 414.819 54.1548 405.487L43.8505 281.147C42.5946 265.993 54.5553 253 69.7616 253Z" fill="white" stroke="#1F120C" stroke-width="12"/>
<g filter="url(#filter0_d_876_1654)">
<path d="M178.895 293.969C178.895 294.656 178.805 295.309 178.625 295.926C178.453 296.535 178.207 297.102 177.887 297.625C177.566 298.148 177.188 298.617 176.75 299.031C176.312 299.445 175.832 299.801 175.309 300.098C174.793 300.387 174.242 300.609 173.656 300.766C173.07 300.922 172.473 301 171.863 301H166.367C165.75 301 165.148 300.922 164.562 300.766C163.977 300.609 163.422 300.387 162.898 300.098C162.383 299.801 161.906 299.445 161.469 299.031C161.031 298.617 160.652 298.148 160.332 297.625C160.02 297.102 159.773 296.535 159.594 295.926C159.422 295.309 159.336 294.656 159.336 293.969V291.227C159.336 290.195 159.527 289.25 159.91 288.391C160.301 287.531 160.82 286.793 161.469 286.176C162.117 285.551 162.863 285.066 163.707 284.723C164.559 284.371 165.445 284.195 166.367 284.195H171.863C172.473 284.195 173.07 284.273 173.656 284.43C174.242 284.586 174.793 284.812 175.309 285.109C175.832 285.398 176.312 285.75 176.75 286.164C177.188 286.578 177.566 287.047 177.887 287.57C178.207 288.094 178.453 288.664 178.625 289.281C178.805 289.891 178.895 290.539 178.895 291.227V293.969ZM175.824 291.227C175.824 290.625 175.715 290.078 175.496 289.586C175.277 289.094 174.984 288.672 174.617 288.32C174.258 287.969 173.84 287.699 173.363 287.512C172.887 287.324 172.387 287.234 171.863 287.242H166.367C165.859 287.234 165.363 287.324 164.879 287.512C164.402 287.691 163.977 287.957 163.602 288.309C163.234 288.652 162.938 289.074 162.711 289.574C162.492 290.066 162.383 290.617 162.383 291.227V293.969C162.383 294.578 162.492 295.129 162.711 295.621C162.93 296.113 163.223 296.535 163.59 296.887C163.957 297.23 164.379 297.496 164.855 297.684C165.34 297.871 165.844 297.961 166.367 297.953H171.863C172.465 297.953 173.008 297.855 173.492 297.66C173.984 297.457 174.402 297.18 174.746 296.828C175.09 296.477 175.355 296.059 175.543 295.574C175.73 295.082 175.824 294.547 175.824 293.969V291.227ZM174.5 289C174.617 289.172 174.695 289.359 174.734 289.562C174.773 289.758 174.773 289.953 174.734 290.148C174.695 290.336 174.617 290.516 174.5 290.688C174.391 290.852 174.246 290.992 174.066 291.109L165.84 296.605C165.707 296.707 165.57 296.777 165.43 296.816C165.289 296.855 165.145 296.875 164.996 296.875C164.746 296.875 164.508 296.816 164.281 296.699C164.055 296.582 163.871 296.414 163.73 296.195C163.613 296.023 163.535 295.84 163.496 295.645C163.457 295.441 163.453 295.246 163.484 295.059C163.523 294.863 163.598 294.684 163.707 294.52C163.816 294.348 163.961 294.203 164.141 294.086L172.391 288.59C172.562 288.473 172.746 288.395 172.941 288.355C173.145 288.316 173.34 288.316 173.527 288.355C173.723 288.395 173.902 288.469 174.066 288.578C174.238 288.688 174.383 288.828 174.5 289ZM189.052 301H185.994V287.242H183.24V284.195H189.052V301ZM214.21 293.969C214.21 294.656 214.12 295.309 213.941 295.926C213.769 296.535 213.523 297.102 213.202 297.625C212.882 298.148 212.503 298.617 212.066 299.031C211.628 299.445 211.148 299.801 210.624 300.098C210.109 300.387 209.558 300.609 208.972 300.766C208.386 300.922 207.788 301 207.179 301H201.683C201.066 301 200.464 300.922 199.878 300.766C199.292 300.609 198.737 300.387 198.214 300.098C197.698 299.801 197.222 299.445 196.784 299.031C196.347 298.617 195.968 298.148 195.648 297.625C195.335 297.102 195.089 296.535 194.909 295.926C194.737 295.309 194.652 294.656 194.652 293.969V291.227C194.652 290.195 194.843 289.25 195.226 288.391C195.616 287.531 196.136 286.793 196.784 286.176C197.433 285.551 198.179 285.066 199.023 284.723C199.874 284.371 200.761 284.195 201.683 284.195H207.179C207.788 284.195 208.386 284.273 208.972 284.43C209.558 284.586 210.109 284.812 210.624 285.109C211.148 285.398 211.628 285.75 212.066 286.164C212.503 286.578 212.882 287.047 213.202 287.57C213.523 288.094 213.769 288.664 213.941 289.281C214.12 289.891 214.21 290.539 214.21 291.227V293.969ZM211.14 291.227C211.14 290.625 211.03 290.078 210.812 289.586C210.593 289.094 210.3 288.672 209.933 288.32C209.573 287.969 209.155 287.699 208.679 287.512C208.202 287.324 207.702 287.234 207.179 287.242H201.683C201.175 287.234 200.679 287.324 200.195 287.512C199.718 287.691 199.292 287.957 198.917 288.309C198.55 288.652 198.253 289.074 198.027 289.574C197.808 290.066 197.698 290.617 197.698 291.227V293.969C197.698 294.578 197.808 295.129 198.027 295.621C198.245 296.113 198.538 296.535 198.905 296.887C199.273 297.23 199.695 297.496 200.171 297.684C200.655 297.871 201.159 297.961 201.683 297.953H207.179C207.78 297.953 208.323 297.855 208.808 297.66C209.3 297.457 209.718 297.18 210.062 296.828C210.405 296.477 210.671 296.059 210.859 295.574C211.046 295.082 211.14 294.547 211.14 293.969V291.227ZM209.816 289C209.933 289.172 210.011 289.359 210.05 289.562C210.089 289.758 210.089 289.953 210.05 290.148C210.011 290.336 209.933 290.516 209.816 290.688C209.706 290.852 209.562 290.992 209.382 291.109L201.155 296.605C201.023 296.707 200.886 296.777 200.745 296.816C200.605 296.855 200.46 296.875 200.312 296.875C200.062 296.875 199.823 296.816 199.597 296.699C199.37 296.582 199.187 296.414 199.046 296.195C198.929 296.023 198.851 295.84 198.812 295.645C198.773 295.441 198.769 295.246 198.8 295.059C198.839 294.863 198.913 294.684 199.023 294.52C199.132 294.348 199.277 294.203 199.456 294.086L207.706 288.59C207.878 288.473 208.062 288.395 208.257 288.355C208.46 288.316 208.655 288.316 208.843 288.355C209.038 288.395 209.218 288.469 209.382 288.578C209.554 288.688 209.698 288.828 209.816 289ZM238.829 293.969C238.829 294.656 238.739 295.309 238.559 295.926C238.388 296.535 238.141 297.102 237.821 297.625C237.501 298.148 237.122 298.617 236.684 299.031C236.247 299.445 235.766 299.801 235.243 300.098C234.727 300.387 234.177 300.609 233.591 300.766C233.005 300.922 232.407 301 231.798 301H226.302C225.684 301 225.083 300.922 224.497 300.766C223.911 300.609 223.356 300.387 222.833 300.098C222.317 299.801 221.841 299.445 221.403 299.031C220.966 298.617 220.587 298.148 220.266 297.625C219.954 297.102 219.708 296.535 219.528 295.926C219.356 295.309 219.27 294.656 219.27 293.969V291.227C219.27 290.195 219.462 289.25 219.845 288.391C220.235 287.531 220.755 286.793 221.403 286.176C222.052 285.551 222.798 285.066 223.641 284.723C224.493 284.371 225.38 284.195 226.302 284.195H231.798C232.407 284.195 233.005 284.273 233.591 284.43C234.177 284.586 234.727 284.812 235.243 285.109C235.766 285.398 236.247 285.75 236.684 286.164C237.122 286.578 237.501 287.047 237.821 287.57C238.141 288.094 238.388 288.664 238.559 289.281C238.739 289.891 238.829 290.539 238.829 291.227V293.969ZM235.759 291.227C235.759 290.625 235.649 290.078 235.43 289.586C235.212 289.094 234.919 288.672 234.552 288.32C234.192 287.969 233.774 287.699 233.298 287.512C232.821 287.324 232.321 287.234 231.798 287.242H226.302C225.794 287.234 225.298 287.324 224.813 287.512C224.337 287.691 223.911 287.957 223.536 288.309C223.169 288.652 222.872 289.074 222.645 289.574C222.427 290.066 222.317 290.617 222.317 291.227V293.969C222.317 294.578 222.427 295.129 222.645 295.621C222.864 296.113 223.157 296.535 223.524 296.887C223.891 297.23 224.313 297.496 224.79 297.684C225.274 297.871 225.778 297.961 226.302 297.953H231.798C232.399 297.953 232.942 297.855 233.427 297.66C233.919 297.457 234.337 297.18 234.68 296.828C235.024 296.477 235.29 296.059 235.477 295.574C235.665 295.082 235.759 294.547 235.759 293.969V291.227ZM234.434 289C234.552 289.172 234.63 289.359 234.669 289.562C234.708 289.758 234.708 289.953 234.669 290.148C234.63 290.336 234.552 290.516 234.434 290.688C234.325 290.852 234.18 290.992 234.001 291.109L225.774 296.605C225.641 296.707 225.505 296.777 225.364 296.816C225.223 296.855 225.079 296.875 224.93 296.875C224.68 296.875 224.442 296.816 224.216 296.699C223.989 296.582 223.805 296.414 223.665 296.195C223.548 296.023 223.47 295.84 223.43 295.645C223.391 295.441 223.388 295.246 223.419 295.059C223.458 294.863 223.532 294.684 223.641 294.52C223.751 294.348 223.895 294.203 224.075 294.086L232.325 288.59C232.497 288.473 232.68 288.395 232.876 288.355C233.079 288.316 233.274 288.316 233.462 288.355C233.657 288.395 233.837 288.469 234.001 288.578C234.173 288.688 234.317 288.828 234.434 289ZM178.895 323.969C178.895 324.656 178.805 325.309 178.625 325.926C178.453 326.535 178.207 327.102 177.887 327.625C177.566 328.148 177.188 328.617 176.75 329.031C176.312 329.445 175.832 329.801 175.309 330.098C174.793 330.387 174.242 330.609 173.656 330.766C173.07 330.922 172.473 331 171.863 331H166.367C165.75 331 165.148 330.922 164.562 330.766C163.977 330.609 163.422 330.387 162.898 330.098C162.383 329.801 161.906 329.445 161.469 329.031C161.031 328.617 160.652 328.148 160.332 327.625C160.02 327.102 159.773 326.535 159.594 325.926C159.422 325.309 159.336 324.656 159.336 323.969V321.227C159.336 320.195 159.527 319.25 159.91 318.391C160.301 317.531 160.82 316.793 161.469 316.176C162.117 315.551 162.863 315.066 163.707 314.723C164.559 314.371 165.445 314.195 166.367 314.195H171.863C172.473 314.195 173.07 314.273 173.656 314.43C174.242 314.586 174.793 314.812 175.309 315.109C175.832 315.398 176.312 315.75 176.75 316.164C177.188 316.578 177.566 317.047 177.887 317.57C178.207 318.094 178.453 318.664 178.625 319.281C178.805 319.891 178.895 320.539 178.895 321.227V323.969ZM175.824 321.227C175.824 320.625 175.715 320.078 175.496 319.586C175.277 319.094 174.984 318.672 174.617 318.32C174.258 317.969 173.84 317.699 173.363 317.512C172.887 317.324 172.387 317.234 171.863 317.242H166.367C165.859 317.234 165.363 317.324 164.879 317.512C164.402 317.691 163.977 317.957 163.602 318.309C163.234 318.652 162.938 319.074 162.711 319.574C162.492 320.066 162.383 320.617 162.383 321.227V323.969C162.383 324.578 162.492 325.129 162.711 325.621C162.93 326.113 163.223 326.535 163.59 326.887C163.957 327.23 164.379 327.496 164.855 327.684C165.34 327.871 165.844 327.961 166.367 327.953H171.863C172.465 327.953 173.008 327.855 173.492 327.66C173.984 327.457 174.402 327.18 174.746 326.828C175.09 326.477 175.355 326.059 175.543 325.574C175.73 325.082 175.824 324.547 175.824 323.969V321.227ZM174.5 319C174.617 319.172 174.695 319.359 174.734 319.562C174.773 319.758 174.773 319.953 174.734 320.148C174.695 320.336 174.617 320.516 174.5 320.688C174.391 320.852 174.246 320.992 174.066 321.109L165.84 326.605C165.707 326.707 165.57 326.777 165.43 326.816C165.289 326.855 165.145 326.875 164.996 326.875C164.746 326.875 164.508 326.816 164.281 326.699C164.055 326.582 163.871 326.414 163.73 326.195C163.613 326.023 163.535 325.84 163.496 325.645C163.457 325.441 163.453 325.246 163.484 325.059C163.523 324.863 163.598 324.684 163.707 324.52C163.816 324.348 163.961 324.203 164.141 324.086L172.391 318.59C172.562 318.473 172.746 318.395 172.941 318.355C173.145 318.316 173.34 318.316 173.527 318.355C173.723 318.395 173.902 318.469 174.066 318.578C174.238 318.688 174.383 318.828 174.5 319ZM189.052 331H185.994V317.242H183.24V314.195H189.052V331ZM214.21 323.969C214.21 324.656 214.12 325.309 213.941 325.926C213.769 326.535 213.523 327.102 213.202 327.625C212.882 328.148 212.503 328.617 212.066 329.031C211.628 329.445 211.148 329.801 210.624 330.098C210.109 330.387 209.558 330.609 208.972 330.766C208.386 330.922 207.788 331 207.179 331H201.683C201.066 331 200.464 330.922 199.878 330.766C199.292 330.609 198.737 330.387 198.214 330.098C197.698 329.801 197.222 329.445 196.784 329.031C196.347 328.617 195.968 328.148 195.648 327.625C195.335 327.102 195.089 326.535 194.909 325.926C194.737 325.309 194.652 324.656 194.652 323.969V321.227C194.652 320.195 194.843 319.25 195.226 318.391C195.616 317.531 196.136 316.793 196.784 316.176C197.433 315.551 198.179 315.066 199.023 314.723C199.874 314.371 200.761 314.195 201.683 314.195H207.179C207.788 314.195 208.386 314.273 208.972 314.43C209.558 314.586 210.109 314.812 210.624 315.109C211.148 315.398 211.628 315.75 212.066 316.164C212.503 316.578 212.882 317.047 213.202 317.57C213.523 318.094 213.769 318.664 213.941 319.281C214.12 319.891 214.21 320.539 214.21 321.227V323.969ZM211.14 321.227C211.14 320.625 211.03 320.078 210.812 319.586C210.593 319.094 210.3 318.672 209.933 318.32C209.573 317.969 209.155 317.699 208.679 317.512C208.202 317.324 207.702 317.234 207.179 317.242H201.683C201.175 317.234 200.679 317.324 200.195 317.512C199.718 317.691 199.292 317.957 198.917 318.309C198.55 318.652 198.253 319.074 198.027 319.574C197.808 320.066 197.698 320.617 197.698 321.227V323.969C197.698 324.578 197.808 325.129 198.027 325.621C198.245 326.113 198.538 326.535 198.905 326.887C199.273 327.23 199.695 327.496 200.171 327.684C200.655 327.871 201.159 327.961 201.683 327.953H207.179C207.78 327.953 208.323 327.855 208.808 327.66C209.3 327.457 209.718 327.18 210.062 326.828C210.405 326.477 210.671 326.059 210.859 325.574C211.046 325.082 211.14 324.547 211.14 323.969V321.227ZM209.816 319C209.933 319.172 210.011 319.359 210.05 319.562C210.089 319.758 210.089 319.953 210.05 320.148C210.011 320.336 209.933 320.516 209.816 320.688C209.706 320.852 209.562 320.992 209.382 321.109L201.155 326.605C201.023 326.707 200.886 326.777 200.745 326.816C200.605 326.855 200.46 326.875 200.312 326.875C200.062 326.875 199.823 326.816 199.597 326.699C199.37 326.582 199.187 326.414 199.046 326.195C198.929 326.023 198.851 325.84 198.812 325.645C198.773 325.441 198.769 325.246 198.8 325.059C198.839 324.863 198.913 324.684 199.023 324.52C199.132 324.348 199.277 324.203 199.456 324.086L207.706 318.59C207.878 318.473 208.062 318.395 208.257 318.355C208.46 318.316 208.655 318.316 208.843 318.355C209.038 318.395 209.218 318.469 209.382 318.578C209.554 318.688 209.698 318.828 209.816 319ZM238.829 323.969C238.829 324.656 238.739 325.309 238.559 325.926C238.388 326.535 238.141 327.102 237.821 327.625C237.501 328.148 237.122 328.617 236.684 329.031C236.247 329.445 235.766 329.801 235.243 330.098C234.727 330.387 234.177 330.609 233.591 330.766C233.005 330.922 232.407 331 231.798 331H226.302C225.684 331 225.083 330.922 224.497 330.766C223.911 330.609 223.356 330.387 222.833 330.098C222.317 329.801 221.841 329.445 221.403 329.031C220.966 328.617 220.587 328.148 220.266 327.625C219.954 327.102 219.708 326.535 219.528 325.926C219.356 325.309 219.27 324.656 219.27 323.969V321.227C219.27 320.195 219.462 319.25 219.845 318.391C220.235 317.531 220.755 316.793 221.403 316.176C222.052 315.551 222.798 315.066 223.641 314.723C224.493 314.371 225.38 314.195 226.302 314.195H231.798C232.407 314.195 233.005 314.273 233.591 314.43C234.177 314.586 234.727 314.812 235.243 315.109C235.766 315.398 236.247 315.75 236.684 316.164C237.122 316.578 237.501 317.047 237.821 317.57C238.141 318.094 238.388 318.664 238.559 319.281C238.739 319.891 238.829 320.539 238.829 321.227V323.969ZM235.759 321.227C235.759 320.625 235.649 320.078 235.43 319.586C235.212 319.094 234.919 318.672 234.552 318.32C234.192 317.969 233.774 317.699 233.298 317.512C232.821 317.324 232.321 317.234 231.798 317.242H226.302C225.794 317.234 225.298 317.324 224.813 317.512C224.337 317.691 223.911 317.957 223.536 318.309C223.169 318.652 222.872 319.074 222.645 319.574C222.427 320.066 222.317 320.617 222.317 321.227V323.969C222.317 324.578 222.427 325.129 222.645 325.621C222.864 326.113 223.157 326.535 223.524 326.887C223.891 327.23 224.313 327.496 224.79 327.684C225.274 327.871 225.778 327.961 226.302 327.953H231.798C232.399 327.953 232.942 327.855 233.427 327.66C233.919 327.457 234.337 327.18 234.68 326.828C235.024 326.477 235.29 326.059 235.477 325.574C235.665 325.082 235.759 324.547 235.759 323.969V321.227ZM234.434 319C234.552 319.172 234.63 319.359 234.669 319.562C234.708 319.758 234.708 319.953 234.669 320.148C234.63 320.336 234.552 320.516 234.434 320.688C234.325 320.852 234.18 320.992 234.001 321.109L225.774 326.605C225.641 326.707 225.505 326.777 225.364 326.816C225.223 326.855 225.079 326.875 224.93 326.875C224.68 326.875 224.442 326.816 224.216 326.699C223.989 326.582 223.805 326.414 223.665 326.195C223.548 326.023 223.47 325.84 223.43 325.645C223.391 325.441 223.388 325.246 223.419 325.059C223.458 324.863 223.532 324.684 223.641 324.52C223.751 324.348 223.895 324.203 224.075 324.086L232.325 318.59C232.497 318.473 232.68 318.395 232.876 318.355C233.079 318.316 233.274 318.316 233.462 318.355C233.657 318.395 233.837 318.469 234.001 318.578C234.173 318.688 234.317 318.828 234.434 319ZM178.895 353.969C178.895 354.656 178.805 355.309 178.625 355.926C178.453 356.535 178.207 357.102 177.887 357.625C177.566 358.148 177.188 358.617 176.75 359.031C176.312 359.445 175.832 359.801 175.309 360.098C174.793 360.387 174.242 360.609 173.656 360.766C173.07 360.922 172.473 361 171.863 361H166.367C165.75 361 165.148 360.922 164.562 360.766C163.977 360.609 163.422 360.387 162.898 360.098C162.383 359.801 161.906 359.445 161.469 359.031C161.031 358.617 160.652 358.148 160.332 357.625C160.02 357.102 159.773 356.535 159.594 355.926C159.422 355.309 159.336 354.656 159.336 353.969V351.227C159.336 350.195 159.527 349.25 159.91 348.391C160.301 347.531 160.82 346.793 161.469 346.176C162.117 345.551 162.863 345.066 163.707 344.723C164.559 344.371 165.445 344.195 166.367 344.195H171.863C172.473 344.195 173.07 344.273 173.656 344.43C174.242 344.586 174.793 344.812 175.309 345.109C175.832 345.398 176.312 345.75 176.75 346.164C177.188 346.578 177.566 347.047 177.887 347.57C178.207 348.094 178.453 348.664 178.625 349.281C178.805 349.891 178.895 350.539 178.895 351.227V353.969ZM175.824 351.227C175.824 350.625 175.715 350.078 175.496 349.586C175.277 349.094 174.984 348.672 174.617 348.32C174.258 347.969 173.84 347.699 173.363 347.512C172.887 347.324 172.387 347.234 171.863 347.242H166.367C165.859 347.234 165.363 347.324 164.879 347.512C164.402 347.691 163.977 347.957 163.602 348.309C163.234 348.652 162.938 349.074 162.711 349.574C162.492 350.066 162.383 350.617 162.383 351.227V353.969C162.383 354.578 162.492 355.129 162.711 355.621C162.93 356.113 163.223 356.535 163.59 356.887C163.957 357.23 164.379 357.496 164.855 357.684C165.34 357.871 165.844 357.961 166.367 357.953H171.863C172.465 357.953 173.008 357.855 173.492 357.66C173.984 357.457 174.402 357.18 174.746 356.828C175.09 356.477 175.355 356.059 175.543 355.574C175.73 355.082 175.824 354.547 175.824 353.969V351.227ZM174.5 349C174.617 349.172 174.695 349.359 174.734 349.562C174.773 349.758 174.773 349.953 174.734 350.148C174.695 350.336 174.617 350.516 174.5 350.688C174.391 350.852 174.246 350.992 174.066 351.109L165.84 356.605C165.707 356.707 165.57 356.777 165.43 356.816C165.289 356.855 165.145 356.875 164.996 356.875C164.746 356.875 164.508 356.816 164.281 356.699C164.055 356.582 163.871 356.414 163.73 356.195C163.613 356.023 163.535 355.84 163.496 355.645C163.457 355.441 163.453 355.246 163.484 355.059C163.523 354.863 163.598 354.684 163.707 354.52C163.816 354.348 163.961 354.203 164.141 354.086L172.391 348.59C172.562 348.473 172.746 348.395 172.941 348.355C173.145 348.316 173.34 348.316 173.527 348.355C173.723 348.395 173.902 348.469 174.066 348.578C174.238 348.688 174.383 348.828 174.5 349ZM189.052 361H185.994V347.242H183.24V344.195H189.052V361ZM214.21 353.969C214.21 354.656 214.12 355.309 213.941 355.926C213.769 356.535 213.523 357.102 213.202 357.625C212.882 358.148 212.503 358.617 212.066 359.031C211.628 359.445 211.148 359.801 210.624 360.098C210.109 360.387 209.558 360.609 208.972 360.766C208.386 360.922 207.788 361 207.179 361H201.683C201.066 361 200.464 360.922 199.878 360.766C199.292 360.609 198.737 360.387 198.214 360.098C197.698 359.801 197.222 359.445 196.784 359.031C196.347 358.617 195.968 358.148 195.648 357.625C195.335 357.102 195.089 356.535 194.909 355.926C194.737 355.309 194.652 354.656 194.652 353.969V351.227C194.652 350.195 194.843 349.25 195.226 348.391C195.616 347.531 196.136 346.793 196.784 346.176C197.433 345.551 198.179 345.066 199.023 344.723C199.874 344.371 200.761 344.195 201.683 344.195H207.179C207.788 344.195 208.386 344.273 208.972 344.43C209.558 344.586 210.109 344.812 210.624 345.109C211.148 345.398 211.628 345.75 212.066 346.164C212.503 346.578 212.882 347.047 213.202 347.57C213.523 348.094 213.769 348.664 213.941 349.281C214.12 349.891 214.21 350.539 214.21 351.227V353.969ZM211.14 351.227C211.14 350.625 211.03 350.078 210.812 349.586C210.593 349.094 210.3 348.672 209.933 348.32C209.573 347.969 209.155 347.699 208.679 347.512C208.202 347.324 207.702 347.234 207.179 347.242H201.683C201.175 347.234 200.679 347.324 200.195 347.512C199.718 347.691 199.292 347.957 198.917 348.309C198.55 348.652 198.253 349.074 198.027 349.574C197.808 350.066 197.698 350.617 197.698 351.227V353.969C197.698 354.578 197.808 355.129 198.027 355.621C198.245 356.113 198.538 356.535 198.905 356.887C199.273 357.23 199.695 357.496 200.171 357.684C200.655 357.871 201.159 357.961 201.683 357.953H207.179C207.78 357.953 208.323 357.855 208.808 357.66C209.3 357.457 209.718 357.18 210.062 356.828C210.405 356.477 210.671 356.059 210.859 355.574C211.046 355.082 211.14 354.547 211.14 353.969V351.227ZM209.816 349C209.933 349.172 210.011 349.359 210.05 349.562C210.089 349.758 210.089 349.953 210.05 350.148C210.011 350.336 209.933 350.516 209.816 350.688C209.706 350.852 209.562 350.992 209.382 351.109L201.155 356.605C201.023 356.707 200.886 356.777 200.745 356.816C200.605 356.855 200.46 356.875 200.312 356.875C200.062 356.875 199.823 356.816 199.597 356.699C199.37 356.582 199.187 356.414 199.046 356.195C198.929 356.023 198.851 355.84 198.812 355.645C198.773 355.441 198.769 355.246 198.8 355.059C198.839 354.863 198.913 354.684 199.023 354.52C199.132 354.348 199.277 354.203 199.456 354.086L207.706 348.59C207.878 348.473 208.062 348.395 208.257 348.355C208.46 348.316 208.655 348.316 208.843 348.355C209.038 348.395 209.218 348.469 209.382 348.578C209.554 348.688 209.698 348.828 209.816 349ZM238.829 353.969C238.829 354.656 238.739 355.309 238.559 355.926C238.388 356.535 238.141 357.102 237.821 357.625C237.501 358.148 237.122 358.617 236.684 359.031C236.247 359.445 235.766 359.801 235.243 360.098C234.727 360.387 234.177 360.609 233.591 360.766C233.005 360.922 232.407 361 231.798 361H226.302C225.684 361 225.083 360.922 224.497 360.766C223.911 360.609 223.356 360.387 222.833 360.098C222.317 359.801 221.841 359.445 221.403 359.031C220.966 358.617 220.587 358.148 220.266 357.625C219.954 357.102 219.708 356.535 219.528 355.926C219.356 355.309 219.27 354.656 219.27 353.969V351.227C219.27 350.195 219.462 349.25 219.845 348.391C220.235 347.531 220.755 346.793 221.403 346.176C222.052 345.551 222.798 345.066 223.641 344.723C224.493 344.371 225.38 344.195 226.302 344.195H231.798C232.407 344.195 233.005 344.273 233.591 344.43C234.177 344.586 234.727 344.812 235.243 345.109C235.766 345.398 236.247 345.75 236.684 346.164C237.122 346.578 237.501 347.047 237.821 347.57C238.141 348.094 238.388 348.664 238.559 349.281C238.739 349.891 238.829 350.539 238.829 351.227V353.969ZM235.759 351.227C235.759 350.625 235.649 350.078 235.43 349.586C235.212 349.094 234.919 348.672 234.552 348.32C234.192 347.969 233.774 347.699 233.298 347.512C232.821 347.324 232.321 347.234 231.798 347.242H226.302C225.794 347.234 225.298 347.324 224.813 347.512C224.337 347.691 223.911 347.957 223.536 348.309C223.169 348.652 222.872 349.074 222.645 349.574C222.427 350.066 222.317 350.617 222.317 351.227V353.969C222.317 354.578 222.427 355.129 222.645 355.621C222.864 356.113 223.157 356.535 223.524 356.887C223.891 357.23 224.313 357.496 224.79 357.684C225.274 357.871 225.778 357.961 226.302 357.953H231.798C232.399 357.953 232.942 357.855 233.427 357.66C233.919 357.457 234.337 357.18 234.68 356.828C235.024 356.477 235.29 356.059 235.477 355.574C235.665 355.082 235.759 354.547 235.759 353.969V351.227ZM234.434 349C234.552 349.172 234.63 349.359 234.669 349.562C234.708 349.758 234.708 349.953 234.669 350.148C234.63 350.336 234.552 350.516 234.434 350.688C234.325 350.852 234.18 350.992 234.001 351.109L225.774 356.605C225.641 356.707 225.505 356.777 225.364 356.816C225.223 356.855 225.079 356.875 224.93 356.875C224.68 356.875 224.442 356.816 224.216 356.699C223.989 356.582 223.805 356.414 223.665 356.195C223.548 356.023 223.47 355.84 223.43 355.645C223.391 355.441 223.388 355.246 223.419 355.059C223.458 354.863 223.532 354.684 223.641 354.52C223.751 354.348 223.895 354.203 224.075 354.086L232.325 348.59C232.497 348.473 232.68 348.395 232.876 348.355C233.079 348.316 233.274 348.316 233.462 348.355C233.657 348.395 233.837 348.469 234.001 348.578C234.173 348.688 234.317 348.828 234.434 349ZM164.645 391H161.586V377.242H158.832V374.195H164.645V391ZM189.802 383.969C189.802 384.656 189.712 385.309 189.533 385.926C189.361 386.535 189.115 387.102 188.795 387.625C188.474 388.148 188.095 388.617 187.658 389.031C187.22 389.445 186.74 389.801 186.216 390.098C185.701 390.387 185.15 390.609 184.564 390.766C183.978 390.922 183.38 391 182.771 391H177.275C176.658 391 176.056 390.922 175.47 390.766C174.884 390.609 174.33 390.387 173.806 390.098C173.291 389.801 172.814 389.445 172.377 389.031C171.939 388.617 171.56 388.148 171.24 387.625C170.927 387.102 170.681 386.535 170.502 385.926C170.33 385.309 170.244 384.656 170.244 383.969V381.227C170.244 380.195 170.435 379.25 170.818 378.391C171.209 377.531 171.728 376.793 172.377 376.176C173.025 375.551 173.771 375.066 174.615 374.723C175.466 374.371 176.353 374.195 177.275 374.195H182.771C183.38 374.195 183.978 374.273 184.564 374.43C185.15 374.586 185.701 374.812 186.216 375.109C186.74 375.398 187.22 375.75 187.658 376.164C188.095 376.578 188.474 377.047 188.795 377.57C189.115 378.094 189.361 378.664 189.533 379.281C189.712 379.891 189.802 380.539 189.802 381.227V383.969ZM186.732 381.227C186.732 380.625 186.623 380.078 186.404 379.586C186.185 379.094 185.892 378.672 185.525 378.32C185.166 377.969 184.748 377.699 184.271 377.512C183.795 377.324 183.295 377.234 182.771 377.242H177.275C176.767 377.234 176.271 377.324 175.787 377.512C175.31 377.691 174.884 377.957 174.509 378.309C174.142 378.652 173.845 379.074 173.619 379.574C173.4 380.066 173.291 380.617 173.291 381.227V383.969C173.291 384.578 173.4 385.129 173.619 385.621C173.837 386.113 174.13 386.535 174.498 386.887C174.865 387.23 175.287 387.496 175.763 387.684C176.248 387.871 176.752 387.961 177.275 387.953H182.771C183.373 387.953 183.916 387.855 184.4 387.66C184.892 387.457 185.31 387.18 185.654 386.828C185.998 386.477 186.263 386.059 186.451 385.574C186.638 385.082 186.732 384.547 186.732 383.969V381.227ZM185.408 379C185.525 379.172 185.603 379.359 185.642 379.562C185.681 379.758 185.681 379.953 185.642 380.148C185.603 380.336 185.525 380.516 185.408 380.688C185.298 380.852 185.154 380.992 184.974 381.109L176.748 386.605C176.615 386.707 176.478 386.777 176.337 386.816C176.197 386.855 176.052 386.875 175.904 386.875C175.654 386.875 175.416 386.816 175.189 386.699C174.962 386.582 174.779 386.414 174.638 386.195C174.521 386.023 174.443 385.84 174.404 385.645C174.365 385.441 174.361 385.246 174.392 385.059C174.431 384.863 174.505 384.684 174.615 384.52C174.724 384.348 174.869 384.203 175.048 384.086L183.298 378.59C183.47 378.473 183.654 378.395 183.849 378.355C184.052 378.316 184.248 378.316 184.435 378.355C184.63 378.395 184.81 378.469 184.974 378.578C185.146 378.688 185.291 378.828 185.408 379ZM214.421 383.969C214.421 384.656 214.331 385.309 214.152 385.926C213.98 386.535 213.734 387.102 213.413 387.625C213.093 388.148 212.714 388.617 212.277 389.031C211.839 389.445 211.359 389.801 210.835 390.098C210.32 390.387 209.769 390.609 209.183 390.766C208.597 390.922 207.999 391 207.39 391H201.894C201.277 391 200.675 390.922 200.089 390.766C199.503 390.609 198.948 390.387 198.425 390.098C197.909 389.801 197.433 389.445 196.995 389.031C196.558 388.617 196.179 388.148 195.859 387.625C195.546 387.102 195.3 386.535 195.12 385.926C194.948 385.309 194.862 384.656 194.862 383.969V381.227C194.862 380.195 195.054 379.25 195.437 378.391C195.827 377.531 196.347 376.793 196.995 376.176C197.644 375.551 198.39 375.066 199.234 374.723C200.085 374.371 200.972 374.195 201.894 374.195H207.39C207.999 374.195 208.597 374.273 209.183 374.43C209.769 374.586 210.32 374.812 210.835 375.109C211.359 375.398 211.839 375.75 212.277 376.164C212.714 376.578 213.093 377.047 213.413 377.57C213.734 378.094 213.98 378.664 214.152 379.281C214.331 379.891 214.421 380.539 214.421 381.227V383.969ZM211.351 381.227C211.351 380.625 211.241 380.078 211.023 379.586C210.804 379.094 210.511 378.672 210.144 378.32C209.784 377.969 209.366 377.699 208.89 377.512C208.413 377.324 207.913 377.234 207.39 377.242H201.894C201.386 377.234 200.89 377.324 200.405 377.512C199.929 377.691 199.503 377.957 199.128 378.309C198.761 378.652 198.464 379.074 198.237 379.574C198.019 380.066 197.909 380.617 197.909 381.227V383.969C197.909 384.578 198.019 385.129 198.237 385.621C198.456 386.113 198.749 386.535 199.116 386.887C199.484 387.23 199.905 387.496 200.382 387.684C200.866 387.871 201.37 387.961 201.894 387.953H207.39C207.991 387.953 208.534 387.855 209.019 387.66C209.511 387.457 209.929 387.18 210.273 386.828C210.616 386.477 210.882 386.059 211.07 385.574C211.257 385.082 211.351 384.547 211.351 383.969V381.227ZM210.027 379C210.144 379.172 210.222 379.359 210.261 379.562C210.3 379.758 210.3 379.953 210.261 380.148C210.222 380.336 210.144 380.516 210.027 380.688C209.917 380.852 209.773 380.992 209.593 381.109L201.366 386.605C201.234 386.707 201.097 386.777 200.956 386.816C200.816 386.855 200.671 386.875 200.523 386.875C200.273 386.875 200.034 386.816 199.808 386.699C199.581 386.582 199.398 386.414 199.257 386.195C199.14 386.023 199.062 385.84 199.023 385.645C198.984 385.441 198.98 385.246 199.011 385.059C199.05 384.863 199.124 384.684 199.234 384.52C199.343 384.348 199.487 384.203 199.667 384.086L207.917 378.59C208.089 378.473 208.273 378.395 208.468 378.355C208.671 378.316 208.866 378.316 209.054 378.355C209.249 378.395 209.429 378.469 209.593 378.578C209.765 378.688 209.909 378.828 210.027 379ZM239.04 383.969C239.04 384.656 238.95 385.309 238.77 385.926C238.598 386.535 238.352 387.102 238.032 387.625C237.712 388.148 237.333 388.617 236.895 389.031C236.458 389.445 235.977 389.801 235.454 390.098C234.938 390.387 234.388 390.609 233.802 390.766C233.216 390.922 232.618 391 232.009 391H226.513C225.895 391 225.294 390.922 224.708 390.766C224.122 390.609 223.567 390.387 223.044 390.098C222.528 389.801 222.052 389.445 221.614 389.031C221.177 388.617 220.798 388.148 220.477 387.625C220.165 387.102 219.919 386.535 219.739 385.926C219.567 385.309 219.481 384.656 219.481 383.969V381.227C219.481 380.195 219.673 379.25 220.055 378.391C220.446 377.531 220.966 376.793 221.614 376.176C222.263 375.551 223.009 375.066 223.852 374.723C224.704 374.371 225.591 374.195 226.513 374.195H232.009C232.618 374.195 233.216 374.273 233.802 374.43C234.388 374.586 234.938 374.812 235.454 375.109C235.977 375.398 236.458 375.75 236.895 376.164C237.333 376.578 237.712 377.047 238.032 377.57C238.352 378.094 238.598 378.664 238.77 379.281C238.95 379.891 239.04 380.539 239.04 381.227V383.969ZM235.97 381.227C235.97 380.625 235.86 380.078 235.641 379.586C235.423 379.094 235.13 378.672 234.763 378.32C234.403 377.969 233.985 377.699 233.509 377.512C233.032 377.324 232.532 377.234 232.009 377.242H226.513C226.005 377.234 225.509 377.324 225.024 377.512C224.548 377.691 224.122 377.957 223.747 378.309C223.38 378.652 223.083 379.074 222.856 379.574C222.638 380.066 222.528 380.617 222.528 381.227V383.969C222.528 384.578 222.638 385.129 222.856 385.621C223.075 386.113 223.368 386.535 223.735 386.887C224.102 387.23 224.524 387.496 225.001 387.684C225.485 387.871 225.989 387.961 226.513 387.953H232.009C232.61 387.953 233.153 387.855 233.638 387.66C234.13 387.457 234.548 387.18 234.891 386.828C235.235 386.477 235.501 386.059 235.688 385.574C235.876 385.082 235.97 384.547 235.97 383.969V381.227ZM234.645 379C234.763 379.172 234.841 379.359 234.88 379.562C234.919 379.758 234.919 379.953 234.88 380.148C234.841 380.336 234.763 380.516 234.645 380.688C234.536 380.852 234.391 380.992 234.212 381.109L225.985 386.605C225.852 386.707 225.716 386.777 225.575 386.816C225.434 386.855 225.29 386.875 225.141 386.875C224.891 386.875 224.653 386.816 224.427 386.699C224.2 386.582 224.016 386.414 223.876 386.195C223.759 386.023 223.68 385.84 223.641 385.645C223.602 385.441 223.598 385.246 223.63 385.059C223.669 384.863 223.743 384.684 223.852 384.52C223.962 384.348 224.106 384.203 224.286 384.086L232.536 378.59C232.708 378.473 232.891 378.395 233.087 378.355C233.29 378.316 233.485 378.316 233.673 378.355C233.868 378.395 234.048 378.469 234.212 378.578C234.384 378.688 234.528 378.828 234.645 379Z" fill="#1F120C"/>
</g>
<defs>
<filter id="filter0_d_876_1654" x="151.832" y="277.195" width="96.2078" height="122.805" filterUnits="userSpaceOnUse" color-interpolation-filters="sRGB">
<feFlood flood-opacity="0" result="BackgroundImageFix"/>
<feColorMatrix in="SourceAlpha" type="matrix" values="0 0 0 0 0 0 0 0 0 0 0 0 0 0 0 0 0 0 127 0" result="hardAlpha"/>
<feOffset dx="1" dy="1"/>
<feGaussianBlur stdDeviation="4"/>
<feComposite in2="hardAlpha" operator="out"/>
<feColorMatrix type="matrix" values="0 0 0 0 0.968627 0 0 0 0 0.411765 0 0 0 0 0.262745 0 0 0 0.5 0"/>
<feBlend mode="normal" in2="BackgroundImageFix" result="effect1_dropShadow_876_1654"/>
<feBlend mode="normal" in="SourceGraphic" in2="effect1_dropShadow_876_1654" result="shape"/>
</filter>
</defs>
</svg>
